Coordinates
version=1
nRows=17
nColumns=36
inDegrees=yes

Units are S.I. units (second, meters, Newtons, ...)
If the header above contains a line with 'inDegrees', this indicates whether rotational values are in degrees (yes) or radians (no).

endheader
time	pelvis_tilt	pelvis_list	pelvis_rotation	pelvis_tx	pelvis_ty	pelvis_tz	hip_flexion_r	hip_adduction_r	hip_rotation_r	knee_angle_r	knee_angle_r_beta	ankle_angle_r	subtalar_angle_r	mtp_angle_r	hip_flexion_l	hip_adduction_l	hip_rotation_l	knee_angle_l	knee_angle_l_beta	ankle_angle_l	subtalar_angle_l	mtp_angle_l	lumbar_extension	lumbar_bending	lumbar_rotation	arm_flex_r	arm_add_r	arm_rot_r	elbow_flex_r	pro_sup_r	arm_flex_l	arm_add_l	arm_rot_l	elbow_flex_l	pro_sup_l
      0.72000000	     -4.98940702	     -2.38673407	      2.54797672	      0.76157569	      1.01282323	     -0.20188980	      2.36873810	      2.54107333	    -16.83507331	     44.75076791	      0.78104824	    -11.22047478	     -7.89030808	     -7.19847420	     27.85112260	     -4.03169923	     -9.43146847	     17.93586043	      0.31303982	     -4.95953721	     -5.75208323	     -7.19847420	    -15.47341924	    -30.45000251	      8.95654692	     -9.53948513	    -12.92783316	     -9.33539611	     66.32109901	    107.66776821	    -12.60484248	     -7.08198620	    -29.60075246	     30.71866616	     95.48309880
      0.73000000	     -5.12772472	     -2.24262670	      2.70753100	      0.77269391	      1.01443703	     -0.20552239	      4.33950373	      1.53106720	    -17.47603232	     47.93229347	      0.83657634	    -13.78807795	    -10.15248525	     -7.20640085	     27.37247947	     -3.75059377	     -9.94356462	     18.18145171	      0.31732620	     -4.04846349	     -5.09380197	     -7.20640085	    -15.72289456	    -30.15997463	      8.25148448	     -9.79291200	    -12.62191158	     -8.79326450	     65.56476576	    107.85963407	    -11.87188916	     -6.99581751	    -29.43634529	     31.42920896	     95.62737455
      0.74000000	     -5.11433922	     -1.99915812	      2.85756345	      0.78372094	      1.01639603	     -0.20932041	      6.11915259	      0.39601039	    -18.00098652	     50.94585028	      0.88917283	    -15.10721443	    -11.66363960	     -7.20979315	     26.60434668	     -3.31657665	    -10.35017009	     18.20190772	      0.31768322	     -3.22392279	     -4.74436014	     -7.20979315	    -16.14012927	    -29.89175014	      7.60248064	    -10.15345784	    -12.28006229	     -8.48276856	     64.99218173	    107.94400343	    -11.01295065	     -6.92455398	    -29.22284314	     32.09681043	     95.73708777
      0.75000000	     -5.20581919	     -1.85746818	      2.87117434	      0.79449691	      1.01841175	     -0.21283267	      8.04850324	     -0.49340440	    -18.17889911	     53.68530373	      0.93698531	    -15.82790430	    -13.64688466	     -7.21367398	     25.87783740	     -3.02585445	    -10.71273402	     18.05139921	      0.31505635	     -2.52133961	     -4.24460846	     -7.21367398	    -16.31867419	    -29.52344938	      7.10148984	    -10.42554652	    -11.93454905	     -8.14894056	     64.27225503	    108.05800667	    -10.24541282	     -6.82764927	    -28.96462743	     32.98724808	     95.87494439
      0.76000000	     -5.23078747	     -1.76763091	      2.84789211	      0.80515653	      1.02070796	     -0.21621622	      9.88220618	     -1.21324946	    -18.14392894	     56.06798586	      0.97857096	    -15.76067168	    -15.38081706	     -7.21722042	     25.05470815	     -2.78733444	    -11.03041161	     17.84221196	      0.31140534	     -1.89371604	     -3.82569537	     -7.21722042	    -16.51872961	    -29.07127591	      6.67748857	    -10.68011764	    -11.57023466	     -7.84997728	     63.51117323	    108.17627629	     -9.41221210	     -6.74887999	    -28.73190838	     33.94963107	     96.00977238
      0.77000000	     -5.24742082	     -1.68300045	      2.75639888	      0.81573756	      1.02315707	     -0.21944434	     11.72885110	     -1.82010351	    -17.88402545	     58.18708179	      1.01555616	    -15.05229455	    -16.82930364	     -7.22063435	     24.14939511	     -2.55946684	    -11.29955615	     17.48604379	      0.30518904	     -1.33549504	     -3.43788801	     -7.22063435	    -16.67020227	    -28.59856256	      6.32376514	    -10.92267851	    -11.20282288	     -7.60655005	     62.70926770	    108.30482069	     -8.61840212	     -6.66859750	    -28.51650683	     35.01190103	     96.14618687
      0.78000000	     -5.35808737	     -1.60819241	      2.59199146	      0.82611067	      1.02557177	     -0.22254224	     13.71644370	     -2.31177803	    -17.36685154	     60.03696785	      1.04784276	    -13.69726581	    -17.41492326	     -7.23148659	     23.32540214	     -2.35161121	    -11.60753287	     17.06894666	      0.29790932	     -0.87835430	     -2.98135195	     -7.23148659	    -16.65973436	    -28.12615276	      5.90386472	    -10.98728422	    -10.85609977	     -7.22111620	     61.70613939	    108.80328011	     -7.99818148	     -6.51249184	    -28.58725922	     36.45280159	     96.31007773
      0.79000000	     -5.24491816	     -1.56827029	      2.40701369	      0.83661042	      1.02842666	     -0.22558317	     15.37983072	     -2.60072071	    -16.70216226	     61.39187088	      1.07149028	    -12.51690487	    -18.23216611	     -7.23382379	     22.13512109	     -2.12613490	    -11.64133687	     16.42460350	      0.28666341	     -0.41426024	     -2.79001919	     -7.23382379	    -16.83845108	    -27.56167190	      5.71594122	    -11.27455142	    -10.46174083	     -7.09641616	     60.92639608	    108.87900938	     -7.13451776	     -6.43385155	    -28.36252246	     37.46680101	     96.43109823
      0.80000000	     -5.30318968	     -1.39746175	      2.17743407	      0.84698844	      1.03103736	     -0.22864936	     17.28081520	     -3.01701496	    -15.86221134	     62.61340749	      1.09281012	    -10.89082986	    -17.60065196	     -7.23992650	     21.08163221	     -1.75571983	    -11.87644631	     15.64419957	      0.27304279	     -0.25478557	     -2.57425816	     -7.23992650	    -16.81121915	    -27.14821886	      5.34597469	    -11.38542009	    -10.00775054	     -7.00384547	     59.94799576	    109.16201659	     -6.59864892	     -6.34094104	    -28.21609826	     39.04287266	     96.59869735
      0.81000000	     -5.26039184	     -1.38605779	      1.95708512	      0.85738658	      1.03384372	     -0.23159151	     18.95685698	     -3.11450417	    -14.96355258	     63.31405303	      1.10503869	     -9.45798551	    -16.76309214	     -7.24757075	     19.87094956	     -1.51431582	    -11.86458256	     14.73874957	      0.25723971	     -0.06268124	     -2.51717420	     -7.24757075	    -16.83852310	    -26.52875350	      5.01657630	    -11.49702341	     -9.62544859	     -6.78118117	     58.98519670	    109.53766375	     -5.98843325	     -6.22665429	    -28.22137646	     40.48256060	     96.73196802
      0.82000000	     -5.20960899	     -1.39647456	      1.71565091	      0.86779342	      1.03663404	     -0.23449622	     20.55554430	     -3.11069442	    -14.03960819	     63.63401511	      1.11062308	     -8.64661089	    -16.02276902	     -7.25224640	     18.62040110	     -1.28887368	    -11.88548737	     13.76924440	      0.24031865	      0.13774769	     -2.38198717	     -7.25224640	    -16.83636334	    -25.87645991	      4.80485788	    -11.66128670	     -9.22734350	     -6.68849806	     57.98037075	    109.73601446	     -5.33717000	     -6.14913145	    -28.04359437	     41.94529017	     96.88392333
      0.83000000	     -5.14944340	     -1.45925765	      1.48996359	      0.87823434	      1.03937671	     -0.23736117	     22.04733284	     -2.99700561	    -13.12935480	     63.62017787	      1.11038157	     -7.79427205	    -14.81850008	     -7.25770427	     17.32825138	     -1.09847075	    -11.87020835	     12.71153717	      0.22185818	      0.23294639	     -2.26797158	     -7.25770427	    -16.82300765	    -25.14183953	      4.44956677	    -11.75054396	     -8.84353788	     -6.56297057	     56.99114674	    109.98818916	     -4.83154229	     -6.09123549	    -27.94551496	     43.50525813	     97.03470417
      0.84000000	     -5.09457727	     -1.56667129	      1.29037025	      0.88868011	      1.04205375	     -0.24020174	     23.42859350	     -2.78732770	    -12.29213858	     63.24976001	      1.10391656	     -7.16355096	    -13.66716476	     -7.26311002	     16.03345827	     -0.94285430	    -11.84698600	     11.61704347	      0.20275566	      0.30492450	     -2.14141401	     -7.26311002	    -16.78803998	    -24.33770385	      4.06930930	    -11.85129345	     -8.48526161	     -6.43241489	     56.01884296	    110.23179501	     -4.33194136	     -6.04933961	    -27.87086362	     45.06522789	     97.18404180
      0.85000000	     -5.04310973	     -1.71537222	      1.10731616	      0.89916516	      1.04457818	     -0.24302647	     24.70606128	     -2.50248063	    -11.53628919	     62.57592868	      1.09215599	     -6.70362328	    -12.67574323	     -7.26765108	     14.73728877	     -0.82395515	    -11.83585437	     10.50486652	      0.18334451	      0.35890625	     -1.94762915	     -7.26765108	    -16.72674324	    -23.47525397	      3.70903535	    -11.98162414	     -8.13298192	     -6.36177218	     55.05434996	    110.41363562	     -3.84076042	     -6.02705308	    -27.75392583	     46.65189960	     97.34410590
      0.86000000	     -4.98201278	     -1.86478093	      0.95223184	      0.90964642	      1.04699983	     -0.24581524	     25.84218161	     -2.20234643	    -10.90009355	     61.60558698	      1.07522033	     -6.17788103	    -11.79228317	     -7.27279669	     13.43316609	     -0.70776077	    -11.87204756	      9.38702052	      0.16383442	      0.37267845	     -1.72293107	     -7.27279669	    -16.69369499	    -22.58986772	      3.21490408	    -12.04306289	     -7.80197363	     -6.30086653	     54.13827363	    110.61020748	     -3.40965995	     -6.04240152	    -27.70971135	     48.28341807	     97.50494334
      0.87000000	     -5.10757279	     -2.08959167	      0.80982406	      0.92003613	      1.04899361	     -0.24850886	     27.07073293	     -1.78103302	    -10.36099671	     60.34497398	      1.05321848	     -5.87760990	    -11.42042113	     -7.27427449	     12.39162131	     -0.68520283	    -11.94088424	      8.37499601	      0.14617126	      0.49106208	     -1.47509816	     -7.27427449	    -16.40604596	    -21.59723087	      2.87934367	    -12.31127501	     -7.50873452	     -6.32806701	     53.55098708	    110.63976185	     -2.80373886	     -6.13301963	    -27.53912825	     49.51571313	     97.64226920
      0.88000000	     -5.08946358	     -2.30891186	      0.68311512	      0.93051329	      1.05096560	     -0.25118182	     28.02025059	     -1.34061367	     -9.87124895	     58.85434542	      1.02720211	     -5.42534655	    -11.04884603	     -7.27613949	     11.14908398	     -0.65615169	    -11.98578940	      7.26923182	      0.12687203	      0.49335687	     -1.07428283	     -7.27613949	    -16.31162486	    -20.63297764	      2.46383072	    -12.46297967	     -7.17661718	     -6.51488659	     52.69410135	    110.65831496	     -2.33602597	     -6.23069434	    -27.33272891	     51.14016888	     97.82187986
